<svg version="1.1" xmlns="http://www.w3.org/2000/svg" viewBox="0 0 32 32">
    <rect style="fill:#ffffff;fill-opacity:1" width="27.542747" height="17.76753" x="2.2132566" y="7.1316042" />
    <g transform="matrix(0.94268719,0,0,0.94268719,0.9170049,5.818507)" style="fill:#175ddc;fill-opacity:1">
        <path d="M 29.2275,0 H 2.7725001 c -0.75,0.042 -1.453,0.376 -1.95499998,0.928 -0.502,0.552 -0.763,1.277 -0.726,2.018 v 15.709 c -0.037,0.741 0.224,1.466 0.726,2.018 0.50199998,0.552 1.20399998,0.886 1.95499998,0.928 H 29.2195 c 0.752,-0.04 1.456,-0.373 1.96,-0.925 0.504,-0.552 0.766,-1.278 0.729,-2.021 V 2.946 C 31.9455,2.205 31.6845,1.48 31.1825,0.928 30.6805,0.376 29.9775,0.042 29.2275,0 Z m 0,1.964 c 0.25,0.015 0.482,0.127 0.649,0.31 0.167,0.183 0.254,0.425 0.242,0.672 V 3.52 c 0.012,0.213 -0.063,0.421 -0.207,0.579 -0.144,0.158 -0.345,0.254 -0.561,0.267 H 2.6475001 c -0.215,-0.013 -0.416,-0.109 -0.56,-0.267 -0.144,-0.158 -0.218,-0.366 -0.206,-0.579 V 2.946 c -0.012,-0.246 0.075,-0.488 0.242,-0.672 0.167,-0.184 0.4,-0.295 0.649,-0.31 z m 0,17.661 H 2.7725001 c -0.248,-0.015 -0.478,-0.125 -0.645,-0.306 -0.167,-0.181 -0.255,-0.419 -0.246,-0.664 V 7.188 c -0.011,-0.213 0.063,-0.421 0.207,-0.579 0.144,-0.158 0.345,-0.254 0.561,-0.267 H 29.3555 c 0.216,0.012 0.417,0.108 0.561,0.267 0.144,0.159 0.219,0.367 0.207,0.579 v 11.467 c 0.012,0.247 -0.076,0.489 -0.243,0.672 -0.167,0.183 -0.402,0.295 -0.652,0.309 v -0.012 z" />
        <path d="m 20.612459,14.486 -1.497,-4.083 c -0.119,-0.325 0.205,-0.637 0.525,-0.504 l 3.908,1.617 c 0.344,0.143 0.321,0.638 -0.035,0.748 l -1.338,0.412 c -0.12,0.037 -0.215,0.128 -0.258,0.246 l -0.558,1.561 c -0.125,0.35 -0.62,0.352 -0.748,0.003 z" />
    </g>
</svg>
