<svg version="1.1" xmlns="http://www.w3.org/2000/svg" viewBox="0 0 32 32">
<path d="M16 0.395c-8.835 0-16 7.164-16 16 0 7.069 4.584 13.067 10.943 15.183 0.799 0.148 1.057-0.348 1.057-0.769v-2.979c-4.451 0.968-5.377-1.888-5.377-1.888-0.728-1.849-1.777-2.341-1.777-2.341-1.452-0.993 0.111-0.972 0.111-0.972 1.607 0.112 2.452 1.649 2.452 1.649 1.427 2.445 3.743 1.739 4.656 1.329 0.143-1.033 0.557-1.74 1.016-2.139-3.553-0.407-7.289-1.779-7.289-7.908 0-1.748 0.625-3.175 1.648-4.295-0.165-0.404-0.713-2.032 0.156-4.235 0 0 1.344-0.429 4.401 1.64 1.276-0.355 2.644-0.532 4.004-0.539 1.36 0.007 2.729 0.184 4.008 0.539 3.055-2.069 4.396-1.64 4.396-1.64 0.871 2.204 0.323 3.832 0.157 4.235 1.027 1.12 1.647 2.548 1.647 4.295 0 6.145-3.743 7.499-7.305 7.895 0.573 0.496 1.097 1.469 1.097 2.963v4.391c0 0.425 0.256 0.925 1.068 0.768 6.353-2.119 10.932-8.115 10.932-15.181 0-8.836-7.164-16-16-16z"></path>
</svg>
