<svg version="1.1" xmlns="http://www.w3.org/2000/svg" viewBox="0 0 32 32">
<path d="M29.227 6.2h-26.455c-0.75 0.042-1.453 0.376-1.955 0.928s-0.763 1.277-0.726 2.018v15.709c-0.037 0.741 0.224 1.466 0.726 2.018s1.204 0.886 1.955 0.928h26.447c0.752-0.040 1.456-0.373 1.96-0.925s0.766-1.278 0.729-2.021v-15.709c0.037-0.741-0.224-1.466-0.726-2.018s-1.205-0.886-1.955-0.928zM29.227 8.164c0.25 0.015 0.482 0.127 0.649 0.31s0.254 0.425 0.242 0.672v0.574c0.012 0.213-0.063 0.421-0.207 0.579s-0.345 0.254-0.561 0.267h-26.703c-0.215-0.013-0.416-0.109-0.56-0.267s-0.218-0.366-0.206-0.579v-0.574c-0.012-0.246 0.075-0.488 0.242-0.672s0.4-0.295 0.649-0.31h26.455zM29.227 25.825h-26.455c-0.248-0.015-0.478-0.125-0.645-0.306s-0.255-0.419-0.246-0.664v-11.467c-0.011-0.213 0.063-0.421 0.207-0.579s0.345-0.254 0.561-0.267h26.706c0.216 0.012 0.417 0.108 0.561 0.267s0.219 0.367 0.207 0.579v11.467c0.012 0.247-0.076 0.489-0.243 0.672s-0.402 0.295-0.652 0.309v-0.012z"></path>
<path d="M20.7 20.686l-1.497-4.083c-0.119-0.325 0.205-0.637 0.525-0.504l3.908 1.617c0.344 0.143 0.321 0.638-0.035 0.748l-1.338 0.412c-0.12 0.037-0.215 0.128-0.258 0.246l-0.558 1.561c-0.125 0.35-0.62 0.352-0.748 0.003z"></path>
</svg>
